<?xml version="1.0" encoding="utf-8"?><svg xml:space="preserve" viewBox="0 0 100 100" y="0" x="0" xmlns="http://www.w3.org/2000/svg" id="圖層_1" version="1.1" width="200px" height="200px" xmlns:xlink="http://www.w3.org/1999/xlink" style="width:100%;height:100%;background-size:initial;background-repeat-y:initial;background-repeat-x:initial;background-position-y:initial;background-position-x:initial;background-origin:initial;background-image:initial;background-color:rgb(255, 255, 255);background-clip:initial;background-attachment:initial;animation-play-state:paused" ><g class="ldl-scale" style="transform-origin:50% 50%;transform:rotate(0deg) scale(0.8, 0.8);animation-play-state:paused" ><path stroke-miterlimit="10" stroke-width="3.5" stroke="#333" fill="#66503a" d="M82 65.4H20.1c-1.4 0-2.6-1.1-2.6-2.6v-7.4c0-1.4 1.1-2.6 2.6-2.6H82c1.4 0 2.6 1.1 2.6 2.6v7.4c0 1.4-1.2 2.6-2.6 2.6z" style="stroke:rgb(51, 51, 51);fill:rgb(102, 80, 58);animation-play-state:paused" ></path>
<path stroke-miterlimit="10" stroke-width="3.5" stroke="#333" fill="#f7b16a" d="M61.8 17.2H40.3c-13.5 0-24.4 10.9-24.4 24.4v0c0 1.5 1.2 2.6 2.6 2.6h65c1.5 0 2.6-1.2 2.6-2.6v0c0-13.5-10.9-24.4-24.3-24.4z" style="stroke:rgb(51, 51, 51);fill:rgb(247, 177, 106);animation-play-state:paused" ></path>
<path stroke-miterlimit="10" stroke-width="3.5" stroke="#333" fill="#f7b16a" d="M74.5 82.8h-47c-5.5 0-10-4.5-10-10v-.3c0-.9.7-1.6 1.6-1.6H83c.9 0 1.6.7 1.6 1.6v.3c0 5.5-4.5 10-10.1 10z" style="stroke:rgb(51, 51, 51);fill:rgb(247, 177, 106);animation-play-state:paused" ></path>
<path fill="#f3e5c7" d="M41.1 33.8c-.6-1.5.1-3.2.8-3.5.6-.3 2.4.4 3 1.8.6 1.5.3 3-.8 3.5-1 .4-2.4-.4-3-1.8z" style="fill:rgb(243, 229, 199);animation-play-state:paused" ></path>
<path fill="#f3e5c7" d="M50.8 38.1c-.6-1.5.1-3.2.8-3.5.6-.3 2.4.4 3 1.8s.3 3-.8 3.5c-1 .5-2.4-.4-3-1.8z" style="fill:rgb(243, 229, 199);animation-play-state:paused" ></path>
<path fill="#f3e5c7" d="M62.2 30.5c-.8 1.3-2.6 1.6-3.1 1.3-.6-.3-1-2.1-.2-3.4.8-1.3 2.2-1.9 3.1-1.3 1 .6 1.1 2.1.2 3.4z" style="fill:rgb(243, 229, 199);animation-play-state:paused" ></path>
<path fill="#f3e5c7" d="M71.6 24.3c1.4.8 1.9 2.6 1.5 3.2s-2.2 1.2-3.6.4-2.1-2.2-1.5-3.2c.6-1 2.2-1.2 3.6-.4z" style="fill:rgb(243, 229, 199);animation-play-state:paused" ></path>
<path fill="#f3e5c7" d="M25.5 36.1c1.3 1.1 1.5 3.1 1 3.6-.5.6-2.5.9-3.8-.2-1.3-1.1-1.8-2.7-1-3.6.8-1 2.5-.9 3.8.2z" style="fill:rgb(243, 229, 199);animation-play-state:paused" ></path>
<path fill="#f3e5c7" d="M33 27.8c.4 1.6-.6 3.2-1.2 3.4-.7.2-2.4-.7-2.8-2.3-.4-1.6.1-3.1 1.2-3.4 1.1-.3 2.3.7 2.8 2.3z" style="fill:rgb(243, 229, 199);animation-play-state:paused" ></path>
<path fill="#f3e5c7" d="M44.2 24.3c-.5 1.5-2.3 2.3-2.9 2.1-.7-.2-1.5-1.9-1-3.4s1.8-2.4 2.9-2.1 1.6 1.8 1 3.4z" style="fill:rgb(243, 229, 199);animation-play-state:paused" ></path>
<path fill="#f3e5c7" d="M76.8 39c-1.5-.3-2.4-1.8-2.3-2.4.1-.6 1.6-1.7 3-1.4s2.5 1.4 2.3 2.4c-.1 1.1-1.5 1.7-3 1.4z" style="fill:rgb(243, 229, 199);animation-play-state:paused" ></path>
<path d="M20.2 44.2h61.6v7.9H20.2z" fill="#e15b64" stroke-miterlimit="10" stroke-width="3.5" stroke="#333" style="stroke:rgb(51, 51, 51);fill:rgb(225, 91, 100);animation-play-state:paused" ></path>
<path stroke-miterlimit="10" stroke-width="3.5" stroke="#333" fill="#abbd81" stroke-linejoin="round" d="M86.5 66.1c-.9-.5-2-.7-3.4-.7H17.4c-.9 0-1.8.1-2.7.4-1.1.4-2.1 1.6-2.7 2.6-.8 1.5-1.6 4.9.2 5.5 2.2.8 4.8-3.1 7-1.1.7.6.8 1.7 1.5 2.4 1.3 1.2 3.4 0 4.6-1.2 1.2-1.3 2.7-2.9 4.4-2.5 2.3.6 2.8 4.4 5.1 4.7 1.6.2 2.7-1.4 3.7-2.7s2.5-2.6 3.9-1.9c.9.5 1.3 1.6 1.7 2.6.9 1.6 2.9 2.9 4.5 2.1 1.8-.8 2.5-3.6 4.5-3.7 2.6-.2 3.7 4.1 6.3 3.9 2.4-.2 2.8-4 5.1-4.7 1.6-.5 3.2.9 4.3 2.1 1.2 1.2 2.9 2.5 4.4 1.8 1.9-.9 1.9-4.1 4-4.5 1.5-.3 2.7 1.1 3.6 2.3.9 1.2 2.6 2.4 3.9 1.4.9-.7 1.2-1.7 2.1-2.3 1.5-1 2.3.3 2.4-2.4-.2-1.8-1.3-3.3-2.7-4.1z" style="stroke:rgb(51, 51, 51);fill:rgb(171, 189, 129);animation-play-state:paused" ></path>
<path stroke-miterlimit="10" stroke-width="3.5" stroke="#333" fill="#ffdc6c" d="M85.8 55.3l-32.4 13c-1.6.6-3.3.6-4.9 0l-32.4-13c-.6-.2-1.1-.9-1.1-1.5v0c0-.9.7-1.6 1.6-1.6H85c.9 0 1.6.7 1.6 1.6v0c.3.6-.2 1.2-.8 1.5z" style="stroke:rgb(51, 51, 51);fill:rgb(255, 220, 108);animation-play-state:paused" ></path>
<path stroke-miterlimit="10" stroke-linejoin="round" stroke-width="3.5" stroke="#000" opacity=".2" d="M86.5 66c-1-.5-2.1-.6-3.4-.6-1 0 1.4-1.2 1.4-2.6v-7.1l1.3-.4c.6-.2 1.1-.9 1.1-1.5 0-.9-.7-1.6-1.6-1.6h-3.4v-7.9h1.7c1.5 0 2.6-1.2 2.6-2.6 0-13.5-10.9-24.4-24.4-24.4h-9.4c11 0 19.9 10.9 19.9 24.4 0 1.5-1 2.6-2.1 2.6h-1.4v7.9h2.8c.7 0 1.3.7 1.3 1.6 0 .7-1.9 9.1-1.9 9.1 0 1.4-2 2.6-1.2 2.6.6 0 1.4-.1 2 .1.3.1.6.3.8.5.9.9 1.8 3.6 1.9 5.1.1 1.5-1 3.1-2.2 2.8-.5-.1-.9-.5-1.4-.8-.1 5.4-3.7 9.7-8.2 9.7h11.7c2.6 0 5.1-1 6.9-2.8.5-.4 1.3-1.2 1.5-1.8.2-.4.3-2.5-.3-2.6 1.1.3 2.1-.7 2.7-1.6.4-.7.7-1.4 1.4-1.8.3-.2.7-.2 1.1-.3 1.8-.7 1.1-3.1.2-4.4-.3-.8-.8-1.3-1.4-1.6z" style="animation-play-state:paused" ></path>
<path d="M56.4 58.2h2.1" stroke-miterlimit="10" stroke-width="3.5" stroke="#fff" fill="none" stroke-linecap="round" style="stroke:rgb(255, 255, 255);animation-play-state:paused" ></path>
<path d="M39.1 58.2h11.2" stroke-miterlimit="10" stroke-width="3.5" stroke="#fff" fill="none" stroke-linecap="round" style="stroke:rgb(255, 255, 255);animation-play-state:paused" ></path>
<metadata xmlns:d="https://loading.io/stock/" style="animation-play-state:paused" ><d:name style="animation-play-state:paused" >hamburger</d:name>
<d:tags style="animation-play-state:paused" >hamburger,sandwich,cheeseburger</d:tags>
<d:license style="animation-play-state:paused" >by</d:license>
<d:slug style="animation-play-state:paused" >f3l1q1</d:slug></metadata></g><!-- generated by https://loading.io/ --></svg>